<svg xmlns="http://www.w3.org/2000/svg" viewBox="0 0 45 45" width="450" height="450" shape-rendering="crispEdges"><rect width="45" height="45" fill="#fff"/><path d="M4 4h7v1h-7zM12 4h1v1h-1zM14 4h1v1h-1zM17 4h2v1h-2zM22 4h2v1h-2zM25 4h2v1h-2zM28 4h2v1h-2zM32 4h1v1h-1zM34 4h7v1h-7zM4 5h1v1h-1zM10 5h1v1h-1zM13 5h3v1h-3zM18 5h3v1h-3zM31 5h2v1h-2zM34 5h1v1h-1zM40 5h1v1h-1zM4 6h1v1h-1zM6 6h3v1h-3zM10 6h1v1h-1zM16 6h3v1h-3zM22 6h1v1h-1zM25 6h2v1h-2zM28 6h1v1h-1zM31 6h2v1h-2zM34 6h1v1h-1zM36 6h3v1h-3zM40 6h1v1h-1zM4 7h1v1h-1zM6 7h3v1h-3zM10 7h1v1h-1zM19 7h1v1h-1zM21 7h1v1h-1zM26 7h1v1h-1zM28 7h4v1h-4zM34 7h1v1h-1zM36 7h3v1h-3zM40 7h1v1h-1zM4 8h1v1h-1zM6 8h3v1h-3zM10 8h1v1h-1zM12 8h1v1h-1zM14 8h1v1h-1zM19 8h1v1h-1zM21 8h1v1h-1zM26 8h3v1h-3zM30 8h1v1h-1zM34 8h1v1h-1zM36 8h3v1h-3zM40 8h1v1h-1zM4 9h1v1h-1zM10 9h1v1h-1zM12 9h2v1h-2zM15 9h6v1h-6zM23 9h1v1h-1zM26 9h1v1h-1zM28 9h1v1h-1zM31 9h2v1h-2zM34 9h1v1h-1zM40 9h1v1h-1zM4 10h7v1h-7zM12 10h1v1h-1zM14 10h1v1h-1zM16 10h1v1h-1zM18 10h1v1h-1zM20 10h1v1h-1zM22 10h1v1h-1zM24 10h1v1h-1zM26 10h1v1h-1zM28 10h1v1h-1zM30 10h1v1h-1zM32 10h1v1h-1zM34 10h7v1h-7zM16 11h1v1h-1zM20 11h2v1h-2zM23 11h4v1h-4zM28 11h1v1h-1zM30 11h1v1h-1zM32 11h1v1h-1zM5 12h7v1h-7zM13 12h2v1h-2zM16 12h2v1h-2zM20 12h1v1h-1zM26 12h3v1h-3zM35 12h2v1h-2zM40 12h1v1h-1zM5 13h1v1h-1zM9 13h1v1h-1zM11 13h6v1h-6zM18 13h2v1h-2zM21 13h2v1h-2zM24 13h1v1h-1zM27 13h6v1h-6zM35 13h1v1h-1zM4 14h4v1h-4zM10 14h3v1h-3zM15 14h1v1h-1zM19 14h1v1h-1zM21 14h2v1h-2zM24 14h1v1h-1zM26 14h1v1h-1zM29 14h2v1h-2zM34 14h1v1h-1zM37 14h1v1h-1zM39 14h2v1h-2zM4 15h2v1h-2zM9 15h1v1h-1zM11 15h1v1h-1zM13 15h1v1h-1zM17 15h2v1h-2zM20 15h1v1h-1zM24 15h4v1h-4zM30 15h1v1h-1zM32 15h1v1h-1zM34 15h2v1h-2zM37 15h1v1h-1zM5 16h3v1h-3zM9 16h2v1h-2zM14 16h1v1h-1zM16 16h4v1h-4zM21 16h4v1h-4zM26 16h2v1h-2zM29 16h2v1h-2zM33 16h2v1h-2zM36 16h4v1h-4zM5 17h3v1h-3zM11 17h1v1h-1zM13 17h1v1h-1zM15 17h2v1h-2zM19 17h1v1h-1zM22 17h1v1h-1zM24 17h1v1h-1zM26 17h2v1h-2zM30 17h1v1h-1zM32 17h2v1h-2zM35 17h1v1h-1zM37 17h3v1h-3zM9 18h5v1h-5zM15 18h2v1h-2zM18 18h6v1h-6zM26 18h1v1h-1zM29 18h1v1h-1zM31 18h2v1h-2zM35 18h1v1h-1zM37 18h1v1h-1zM39 18h2v1h-2zM4 19h1v1h-1zM7 19h3v1h-3zM12 19h1v1h-1zM15 19h1v1h-1zM33 19h2v1h-2zM4 20h4v1h-4zM9 20h3v1h-3zM14 20h2v1h-2zM17 20h1v1h-1zM19 20h1v1h-1zM21 20h2v1h-2zM24 20h3v1h-3zM28 20h2v1h-2zM31 20h4v1h-4zM36 20h1v1h-1zM38 20h2v1h-2zM4 21h1v1h-1zM6 21h1v1h-1zM8 21h1v1h-1zM12 21h1v1h-1zM14 21h1v1h-1zM16 21h2v1h-2zM19 21h2v1h-2zM25 21h1v1h-1zM32 21h2v1h-2zM35 21h1v1h-1zM37 21h2v1h-2zM4 22h1v1h-1zM6 22h1v1h-1zM8 22h3v1h-3zM13 22h1v1h-1zM15 22h1v1h-1zM18 22h2v1h-2zM22 22h1v1h-1zM24 22h1v1h-1zM27 22h2v1h-2zM30 22h2v1h-2zM33 22h1v1h-1zM35 22h2v1h-2zM39 22h2v1h-2zM5 23h1v1h-1zM7 23h3v1h-3zM12 23h2v1h-2zM15 23h5v1h-5zM21 23h1v1h-1zM23 23h1v1h-1zM25 23h3v1h-3zM30 23h2v1h-2zM35 23h1v1h-1zM37 23h1v1h-1zM39 23h1v1h-1zM5 24h2v1h-2zM8 24h1v1h-1zM10 24h1v1h-1zM12 24h2v1h-2zM15 24h1v1h-1zM17 24h3v1h-3zM24 24h1v1h-1zM26 24h5v1h-5zM34 24h5v1h-5zM40 24h1v1h-1zM5 25h1v1h-1zM12 25h2v1h-2zM18 25h3v1h-3zM23 25h5v1h-5zM29 25h2v1h-2zM35 25h1v1h-1zM5 26h2v1h-2zM8 26h3v1h-3zM13 26h1v1h-1zM15 26h3v1h-3zM19 26h5v1h-5zM25 26h2v1h-2zM29 26h3v1h-3zM33 26h1v1h-1zM38 26h3v1h-3zM4 27h1v1h-1zM7 27h2v1h-2zM13 27h2v1h-2zM16 27h1v1h-1zM18 27h1v1h-1zM21 27h1v1h-1zM23 27h1v1h-1zM25 27h1v1h-1zM27 27h3v1h-3zM33 27h3v1h-3zM4 28h1v1h-1zM10 28h1v1h-1zM12 28h3v1h-3zM17 28h1v1h-1zM19 28h1v1h-1zM21 28h3v1h-3zM26 28h1v1h-1zM28 28h1v1h-1zM30 28h1v1h-1zM33 28h4v1h-4zM38 28h1v1h-1zM40 28h1v1h-1zM4 29h1v1h-1zM6 29h2v1h-2zM9 29h1v1h-1zM14 29h2v1h-2zM17 29h4v1h-4zM23 29h1v1h-1zM25 29h1v1h-1zM27 29h1v1h-1zM31 29h1v1h-1zM35 29h1v1h-1zM38 29h1v1h-1zM4 30h1v1h-1zM6 30h3v1h-3zM10 30h1v1h-1zM13 30h1v1h-1zM16 30h4v1h-4zM21 30h1v1h-1zM23 30h1v1h-1zM26 30h1v1h-1zM29 30h1v1h-1zM31 30h1v1h-1zM34 30h1v1h-1zM37 30h4v1h-4zM4 31h1v1h-1zM7 31h3v1h-3zM15 31h6v1h-6zM25 31h2v1h-2zM28 31h1v1h-1zM31 31h3v1h-3zM36 31h1v1h-1zM39 31h1v1h-1zM4 32h1v1h-1zM6 32h2v1h-2zM10 32h4v1h-4zM15 32h1v1h-1zM17 32h1v1h-1zM19 32h1v1h-1zM21 32h1v1h-1zM23 32h2v1h-2zM26 32h2v1h-2zM29 32h2v1h-2zM32 32h8v1h-8zM12 33h2v1h-2zM16 33h1v1h-1zM18 33h1v1h-1zM21 33h3v1h-3zM25 33h1v1h-1zM27 33h1v1h-1zM29 33h4v1h-4zM36 33h1v1h-1zM4 34h7v1h-7zM12 34h1v1h-1zM16 34h2v1h-2zM19 34h1v1h-1zM21 34h1v1h-1zM23 34h1v1h-1zM25 34h1v1h-1zM29 34h2v1h-2zM32 34h1v1h-1zM34 34h1v1h-1zM36 34h2v1h-2zM39 34h2v1h-2zM4 35h1v1h-1zM10 35h1v1h-1zM12 35h5v1h-5zM19 35h1v1h-1zM22 35h5v1h-5zM28 35h1v1h-1zM32 35h1v1h-1zM36 35h1v1h-1zM39 35h2v1h-2zM4 36h1v1h-1zM6 36h3v1h-3zM10 36h1v1h-1zM12 36h2v1h-2zM17 36h1v1h-1zM19 36h3v1h-3zM25 36h1v1h-1zM27 36h1v1h-1zM29 36h8v1h-8zM38 36h3v1h-3zM4 37h1v1h-1zM6 37h3v1h-3zM10 37h1v1h-1zM12 37h1v1h-1zM15 37h1v1h-1zM19 37h2v1h-2zM22 37h1v1h-1zM24 37h1v1h-1zM26 37h1v1h-1zM28 37h1v1h-1zM34 37h1v1h-1zM36 37h1v1h-1zM38 37h2v1h-2zM4 38h1v1h-1zM6 38h3v1h-3zM10 38h1v1h-1zM12 38h5v1h-5zM18 38h2v1h-2zM21 38h3v1h-3zM26 38h1v1h-1zM29 38h1v1h-1zM32 38h2v1h-2zM35 38h1v1h-1zM37 38h2v1h-2zM40 38h1v1h-1zM4 39h1v1h-1zM10 39h1v1h-1zM12 39h1v1h-1zM14 39h1v1h-1zM16 39h2v1h-2zM19 39h8v1h-8zM28 39h1v1h-1zM31 39h6v1h-6zM40 39h1v1h-1zM4 40h7v1h-7zM13 40h2v1h-2zM18 40h1v1h-1zM23 40h2v1h-2zM26 40h1v1h-1zM28 40h3v1h-3zM34 40h1v1h-1zM37 40h4v1h-4z" fill="#17255A"/></svg>